<?xml version="1.0" encoding="utf-8"?>
<!-- Generator: Adobe Illustrator 27.1.1, SVG Export Plug-In . SVG Version: 6.00 Build 0)  -->
<svg version="1.1" id="Capa_1" xmlns="http://www.w3.org/2000/svg" xmlns:xlink="http://www.w3.org/1999/xlink" x="0px" y="0px"
	 viewBox="0 0 55 64" style="enable-background:new 0 0 55 64;" xml:space="preserve">
<style type="text/css">
	.st0{fill:#9998FE;}
	.st1{fill:#00005C;}
</style>
<g>
	<g>
		<path class="st0" d="M51.6,4.5H3.4C1.5,4.5,0,6,0,7.9v48.3c0,1.9,1.5,3.4,3.4,3.4h48.3c1.9,0,3.4-1.5,3.4-3.4V7.9
			C55,6,53.5,4.5,51.6,4.5z"/>
	</g>
</g>
<g>
	<g>
		<g>
			<path class="st1" d="M50.7,5.5H4.3C2.5,5.5,1,7,1,8.8v46.5c0,1.8,1.5,3.2,3.2,3.2h46.5c1.8,0,3.2-1.5,3.2-3.2V8.8
				C54,7,52.5,5.5,50.7,5.5z"/>
		</g>
	</g>
</g>
<g>
	<path class="st0" d="M25.1,44.8l-1.9-6.1h-9.4L12,44.8H6.1l9.1-25.9h6.7L31,44.8H25.1z M21.9,34l-1.9-6c-0.1-0.4-0.3-0.9-0.5-1.5
		c-0.2-0.6-0.4-1.3-0.6-1.9s-0.4-1.2-0.5-1.7c-0.1,0.5-0.3,1.1-0.5,1.8c-0.2,0.7-0.4,1.4-0.6,2s-0.3,1.1-0.4,1.4l-1.9,6H21.9z"/>
	<path class="st0" d="M40.1,24.7c1.8,0,3.4,0.4,4.7,1.1c1.3,0.7,2.3,1.7,3.1,3c0.7,1.3,1.1,3,1.1,4.9v2.6H36.2
		c0.1,1.5,0.5,2.7,1.4,3.6c0.9,0.9,2,1.3,3.6,1.3c1.3,0,2.4-0.1,3.5-0.4c1-0.3,2.1-0.6,3.2-1.2v4.2c-1,0.5-2,0.8-3.1,1.1
		c-1.1,0.2-2.4,0.3-3.9,0.3c-2,0-3.7-0.4-5.3-1.1c-1.5-0.7-2.7-1.8-3.6-3.3c-0.9-1.5-1.3-3.4-1.3-5.6c0-2.3,0.4-4.2,1.2-5.8
		c0.8-1.5,1.9-2.7,3.3-3.5C36.6,25.1,38.2,24.7,40.1,24.7z M40.1,28.5c-1,0-1.9,0.3-2.6,1c-0.7,0.7-1.1,1.7-1.2,3.2h7.6
		c0-0.8-0.2-1.5-0.4-2.1c-0.3-0.6-0.7-1.1-1.2-1.5C41.7,28.7,41,28.5,40.1,28.5z"/>
</g>
</svg>
