<?xml version="1.0" encoding="utf-8"?>
<!-- Generator: Adobe Illustrator 27.1.1, SVG Export Plug-In . SVG Version: 6.00 Build 0)  -->
<svg version="1.1" id="Capa_1" xmlns="http://www.w3.org/2000/svg" xmlns:xlink="http://www.w3.org/1999/xlink" x="0px" y="0px"
	 viewBox="0 0 55 64" style="enable-background:new 0 0 55 64;" xml:space="preserve">
<style type="text/css">
	.st0{fill:#EA7600;}
	.st1{fill:#226093;}
</style>
<g>
	<path d="M42.7,34.3c0.1,1.7-0.6,3.3-1.8,4.5c-1.2,1.2-3,2-5,2c-2,0-3.7-0.8-5-2c-1.2-1.2-1.9-2.8-1.8-4.5c0.1-1.7,0.9-3.2,2.1-4.2
		c1.2-1,2.8-1.7,4.6-1.7c1.8,0,3.4,0.6,4.6,1.7C41.8,31.2,42.7,32.6,42.7,34.3z"/>
	<path class="st0" d="M54.8,34.5c-0.3-2.3-1.1-4.4-2.3-6.4c-1.1-1.7-2.5-3.2-4.1-4.6L31.2,10.3c0,0,0,0,0,0
		c-0.6-0.4-1.3-0.7-2.2-0.7c-0.8,0-1.6,0.2-2.3,0.7c-0.7,0.5-1.1,1.1-1.1,1.8c0,0.6,0.3,1.2,0.8,1.7c1.1,0.9,2.2,1.8,3.3,2.7
		c1.1,0.9,2.2,1.8,3.3,2.6l-21.1,0c-2.4,0-4,1.1-4.4,3c-0.2,0.8,0.1,1.8,0.7,2.5c0.6,0.7,1.5,1.1,2.5,1.1h1.6c2.2,0,4.5,0,6.7,0h2.1
		L2,39.8l-0.1,0c-1.1,0.8-1.8,2-1.9,3.2c-0.1,0.9,0.1,1.7,0.6,2.4c0.6,0.8,1.6,1.2,2.7,1.2c1.1,0,2.2-0.4,3.2-1.2L16.8,37
		c0,0.4-0.1,1-0.1,1.5c0,0.7,0.2,2.1,0.6,3.2c0.7,2.3,2,4.5,3.7,6.4c1.8,1.9,3.9,3.5,6.4,4.6c2.6,1.2,5.4,1.7,8.4,1.7h0
		c2.9,0,5.8-0.6,8.4-1.8c2.5-1.1,4.6-2.7,6.4-4.6c1.7-1.9,2.9-4,3.7-6.4c0.4-1.2,0.6-2.3,0.7-3.5C55,36.9,55,35.7,54.8,34.5z
		 M36,45.7c-6.5,0-11.7-4.7-11.7-10.5c0-5.8,5.2-10.5,11.7-10.5c6.5,0,11.7,4.7,11.7,10.5C47.7,41,42.5,45.7,36,45.7z"/>
	<path d="M40.9,38.8c-1.2,1.2-3,2-5,2c-2,0-3.7-0.8-5-2c-1.2-1.2-1.9-2.8-1.8-4.5c0.1-1.7,0.9-3.2,2.1-4.2c1.2-1,2.8-1.7,4.6-1.7
		c1.8,0,3.4,0.6,4.6,1.7c1.2,1,2.1,2.5,2.1,4.2C42.8,36,42.2,37.7,40.9,38.8z"/>
	<path class="st1" d="M40.9,38.8c-1.2,1.2-3,2-5,2c-2,0-3.7-0.8-5-2c-1.2-1.2-1.9-2.8-1.8-4.5c0.1-1.7,0.9-3.2,2.1-4.2
		c1.2-1,2.8-1.7,4.6-1.7c1.8,0,3.4,0.6,4.6,1.7c1.2,1,2.1,2.5,2.1,4.2C42.8,36,42.2,37.7,40.9,38.8z"/>
</g>
</svg>
