<?xml version="1.0" encoding="utf-8"?>
<!-- Generator: Adobe Illustrator 27.1.1, SVG Export Plug-In . SVG Version: 6.00 Build 0)  -->
<svg version="1.1" id="Capa_1" xmlns="http://www.w3.org/2000/svg" xmlns:xlink="http://www.w3.org/1999/xlink" x="0px" y="0px"
	 viewBox="0 0 55 64" style="enable-background:new 0 0 55 64;" xml:space="preserve">
<style type="text/css">
	.st0{fill:url(#SVGID_1_);}
	.st1{fill:#FFFFFF;}
</style>
<linearGradient id="SVGID_1_" gradientUnits="userSpaceOnUse" x1="40.4968" y1="11.4888" x2="13.9924" y2="57.3958" gradientTransform="matrix(1 0 0 -1 0 66)">
	<stop  offset="0" style="stop-color:#752AEC"/>
	<stop  offset="0.266" style="stop-color:#4A62E0"/>
	<stop  offset="0.5398" style="stop-color:#2395D5"/>
	<stop  offset="0.7469" style="stop-color:#0BB5CF"/>
	<stop  offset="0.8615" style="stop-color:#02C1CC"/>
</linearGradient>
<circle class="st0" cx="27.5" cy="32" r="26.5"/>
<g>
	<path class="st1" d="M14.1,35.4c0.1-5.9,1.8-10.8,5.5-15c2.2-2.6,5-4.5,8.2-5.6c2.5-0.8,5.1-1,7.7-0.4c1.3,0.3,2.5,0.9,3.5,1.8
		c1.2,1.1,1.8,2.4,1.9,4c0.1,2-0.5,3.8-1.8,5.4c-0.7,0.8-1.5,1.4-2.5,1.6c-0.3,0.1-0.6,0.1-1,0.1c-0.5,0-0.9-0.4-0.8-0.9
		c0.1-0.4,0.3-0.9,0.5-1.3c0.5-0.9,0.9-1.9,1.1-2.9c0.2-1.1,0.2-2.3-0.2-3.4c-0.5-1.2-1.4-1.9-2.7-2.1c-1.3-0.2-2.6,0.1-3.8,0.7
		c-1.5,0.7-2.9,1.7-4,3c-2.5,2.6-4.2,5.7-5.1,9.2c-0.4,1.5-0.6,3.1-0.7,4.7c-0.1,2,0.1,4,0.7,6c0.4,1.4,1,2.8,2.1,3.9
		c1.2,1.3,2.6,2,4.3,2.2c2.7,0.3,5-0.5,7-2.2c1.9-1.5,3.3-3.4,4.4-5.4c0.2-0.3,0.4-0.7,0.5-1c0.2-0.3,0.4-0.4,0.7-0.1
		c0.3,0.3,0.3,0.6,0.4,0.9c0,0.6-0.1,1.2-0.4,1.8c-0.5,1.2-1.2,2.3-2,3.3c-1.4,1.9-3.1,3.5-5.1,4.6c-1.4,0.8-2.9,1.4-4.5,1.5
		c-3.2,0.3-6.3-0.3-8.9-2.4c-1.6-1.3-2.7-2.9-3.5-4.8c-0.6-1.5-1-3-1.2-4.6C14.2,37.1,14.1,36,14.1,35.4z"/>
</g>
</svg>
