<?xml version="1.0" encoding="utf-8"?>
<!-- Generator: Adobe Illustrator 27.1.1, SVG Export Plug-In . SVG Version: 6.00 Build 0)  -->
<svg version="1.1" id="Capa_1" xmlns="http://www.w3.org/2000/svg" xmlns:xlink="http://www.w3.org/1999/xlink" x="0px" y="0px"
	 viewBox="0 0 55 64" style="enable-background:new 0 0 55 64;" xml:space="preserve">
<style type="text/css">
	.st0{fill:#FB9700;}
	.st1{fill:#330000;}
</style>
<g>
	<g>
		<g>
			<path class="st0" d="M51.6,4.5H3.4C1.5,4.5,0,6,0,7.9v48.3c0,1.9,1.5,3.4,3.4,3.4h48.3c1.9,0,3.4-1.5,3.4-3.4V7.9
				C55,6,53.5,4.5,51.6,4.5z"/>
		</g>
	</g>
</g>
<g>
	<g>
		<g>
			<path class="st1" d="M22.5,23.6L22.5,23.6c-0.5,1.6-0.9,3.6-1.3,5.2l-1.6,5.7h6l-1.7-5.7C23.4,27.2,22.9,25.2,22.5,23.6z"/>
			<path class="st1" d="M50.7,5.5H4.3C2.5,5.5,1,7,1,8.8v46.5c0,1.8,1.5,3.2,3.2,3.2h46.5c1.8,0,3.2-1.5,3.2-3.2V8.8
				C54,7,52.5,5.5,50.7,5.5z M28.5,46l-2.1-6.9h-7.7L16.8,46h-6.3l8.2-26.9h8L35.1,46H28.5z M44.3,46h-6.1V26.5h6.1V46z M41.2,24.1
				c-1.9,0-3.2-1.4-3.2-3c0-1.8,1.2-3.1,3.2-3.1c2,0,3.2,1.3,3.2,3.1C44.5,22.7,43.2,24.1,41.2,24.1z"/>
		</g>
	</g>
</g>
</svg>
