<?xml version="1.0" encoding="utf-8"?>
<!-- Generator: Adobe Illustrator 27.1.1, SVG Export Plug-In . SVG Version: 6.00 Build 0)  -->
<svg version="1.1" id="Capa_1" xmlns="http://www.w3.org/2000/svg" xmlns:xlink="http://www.w3.org/1999/xlink" x="0px" y="0px"
	 viewBox="0 0 55 64" style="enable-background:new 0 0 55 64;" xml:space="preserve">
<style type="text/css">
	.st0{fill:#00A9FF;}
	.st1{fill:#001834;}
</style>
<g>
	<g>
		<path class="st0" d="M51.6,4.5H3.4C1.5,4.5,0,6,0,7.9v48.3c0,1.9,1.5,3.4,3.4,3.4h48.3c1.9,0,3.4-1.5,3.4-3.4V7.9
			C55,6,53.5,4.5,51.6,4.5z"/>
	</g>
</g>
<g>
	<g>
		<path class="st1" d="M50.7,5.5H4.3C2.5,5.5,1,7,1,8.8v46.5c0,1.8,1.5,3.2,3.2,3.2h46.5c1.8,0,3.2-1.5,3.2-3.2V8.8
			C54,7,52.5,5.5,50.7,5.5z"/>
	</g>
</g>
<g>
	<path class="st0" d="M18,17.9c3.6,0,6.2,0.8,7.8,2.3c1.6,1.5,2.5,3.7,2.5,6.4c0,1.2-0.2,2.4-0.6,3.5c-0.4,1.1-1,2.1-1.8,3
		c-0.8,0.9-1.9,1.5-3.3,2s-3.1,0.8-5.1,0.8H15v9.9H9.1V17.9H18z M17.7,22.7H15V31h1.9c1.1,0,2.1-0.1,2.9-0.4
		c0.8-0.3,1.4-0.7,1.9-1.4c0.4-0.6,0.7-1.4,0.7-2.4c0-1.4-0.4-2.4-1.1-3C20.4,23.1,19.3,22.7,17.7,22.7z"/>
	<path class="st0" d="M45.9,39.4c0,1.4-0.3,2.7-1,3.7s-1.7,1.7-3,2.3s-3,0.8-5,0.8c-1.5,0-2.8-0.1-3.8-0.3c-1.1-0.2-2.1-0.5-3.2-0.9
		v-4.8c1.2,0.5,2.4,0.9,3.7,1.3c1.3,0.3,2.5,0.5,3.5,0.5c1.1,0,1.9-0.2,2.4-0.5c0.5-0.3,0.7-0.8,0.7-1.3c0-0.4-0.1-0.7-0.3-1
		c-0.2-0.3-0.6-0.6-1.3-1c-0.6-0.4-1.7-0.8-3-1.4c-1.3-0.6-2.4-1.1-3.3-1.7c-0.9-0.6-1.5-1.2-1.9-2c-0.4-0.8-0.6-1.8-0.6-3
		c0-2,0.8-3.4,2.3-4.4c1.5-1,3.6-1.5,6.1-1.5c1.3,0,2.6,0.1,3.8,0.4c1.2,0.3,2.4,0.7,3.7,1.3l-1.7,4.2c-1.1-0.5-2-0.8-3-1.1
		c-0.9-0.3-1.9-0.4-2.8-0.4c-0.8,0-1.5,0.1-1.9,0.3s-0.6,0.6-0.6,1c0,0.3,0.1,0.6,0.3,0.9c0.2,0.3,0.7,0.6,1.3,0.9
		c0.6,0.3,1.6,0.7,2.8,1.2c1.2,0.5,2.2,1,3.1,1.5c0.9,0.5,1.6,1.2,2.1,2C45.7,37.1,45.9,38.1,45.9,39.4z"/>
</g>
</svg>
