<?xml version="1.0" encoding="utf-8"?>
<!-- Generator: Adobe Illustrator 27.1.1, SVG Export Plug-In . SVG Version: 6.00 Build 0)  -->
<svg version="1.1" id="Capa_1" xmlns="http://www.w3.org/2000/svg" xmlns:xlink="http://www.w3.org/1999/xlink" x="0px" y="0px"
	 viewBox="0 0 55 64" style="enable-background:new 0 0 55 64;" xml:space="preserve">
<style type="text/css">
	.st0{fill:#9998FE;}
	.st1{fill:#00005C;}
</style>
<g>
	<g>
		<path class="st0" d="M51.6,4.5H3.4C1.5,4.5,0,6,0,7.9v48.3c0,1.9,1.5,3.4,3.4,3.4h48.3c1.9,0,3.4-1.5,3.4-3.4V7.9
			C55,6,53.5,4.5,51.6,4.5z"/>
	</g>
</g>
<g>
	<g>
		<g>
			<path class="st1" d="M50.7,5.5H4.3C2.5,5.5,1,7,1,8.8v46.5c0,1.8,1.5,3.2,3.2,3.2h46.5c1.8,0,3.2-1.5,3.2-3.2V8.8
				C54,7,52.5,5.5,50.7,5.5z"/>
		</g>
	</g>
</g>
<g>
	<path class="st0" d="M19.8,18.9c3.4,0,5.9,0.7,7.4,2.2c1.6,1.5,2.3,3.5,2.3,6c0,1.2-0.2,2.3-0.5,3.3c-0.3,1-0.9,2-1.7,2.8
		c-0.8,0.8-1.8,1.5-3.1,1.9c-1.3,0.5-2.9,0.7-4.8,0.7H17v9.4h-5.6V18.9H19.8z M19.5,23.5H17v7.8h1.8c1,0,1.9-0.1,2.7-0.4
		c0.8-0.3,1.4-0.7,1.8-1.3c0.4-0.6,0.6-1.3,0.6-2.3c0-1.3-0.4-2.3-1.1-2.9C22.1,23.8,21,23.5,19.5,23.5z"/>
	<path class="st0" d="M43.7,24.7c0.3,0,0.6,0,1,0c0.4,0,0.7,0.1,0.9,0.1L45.2,30c-0.2-0.1-0.4-0.1-0.8-0.1c-0.3,0-0.6,0-0.9,0
		c-0.7,0-1.4,0.1-2.1,0.3c-0.7,0.2-1.3,0.5-1.8,0.9c-0.5,0.4-0.9,0.9-1.3,1.6C38.2,33.2,38,34,38,35v10.2h-5.5V25.1h4.2l0.8,3.4h0.3
		c0.4-0.7,0.9-1.3,1.5-1.9c0.6-0.6,1.3-1,2-1.4C42,24.9,42.9,24.7,43.7,24.7z"/>
</g>
</svg>
